<svg viewBox="0 0 64 64" xmlns="http://www.w3.org/2000/svg">
  <path d="M29.9 23.2L32 18L34.1 23.2A12 12 0 0 1 37.3 24.2L42 21.2L40.6 26.6A12 12 0 0 1 42.6 29.4L48.2 29.7L43.9 33.3A12 12 0 0 1 43.9 36.7L48.2 40.3L42.6 40.6A12 12 0 0 1 40.6 43.4L42 48.8L37.3 45.8A12 12 0 0 1 34.1 46.8L32 52L29.9 46.8A12 12 0 0 1 26.7 45.8L22 48.8L23.4 43.4A12 12 0 0 1 21.4 40.6L15.8 40.3L20.1 36.7A12 12 0 0 1 20.1 33.3L15.8 29.7L21.4 29.4A12 12 0 0 1 23.4 26.6L22 21.2L26.7 24.2A12 12 0 0 1 29.9 23.2Z" fill="var(--pw-grain-fill,#E8EBEE)" stroke="var(--pw-grain-stroke,#2A3540)" stroke-width="2.2" stroke-linejoin="round" stroke-linecap="round"></path><path d="M32 27 L38 43 L26 43 Z" fill="var(--pw-grain-fill,#E8EBEE)" stroke="var(--pw-grain-stroke,#2A3540)" stroke-width="2.2" stroke-linejoin="round" stroke-linecap="round"></path><path d="M32 27 L32 43" fill="none" stroke="var(--pw-grain-stroke,#2A3540)" stroke-width="1.3" stroke-linecap="round" stroke-linejoin="round"></path>
</svg>