<svg viewBox="0 0 64 64" xmlns="http://www.w3.org/2000/svg">
  <path d="M30 14.6 L30.7 17.7 L28.8 22.4 L32.1 23.9 L31 28.1 L34.8 29.2 L34.2 33.2 L38.5 34 L38.3 37.7 L43.4 38 L45.9 40 L50 37.4 L49.3 34.3 L51.2 29.6 L47.9 28.1 L49 23.9 L45.2 22.8 L45.8 18.8 L41.5 18 L41.7 14.3 L36.6 14 L34.1 12 Z" fill="var(--pw-grain-fill,#E8EBEE)" stroke="var(--pw-grain-stroke,#2A3540)" stroke-width="2.2" stroke-linejoin="round" stroke-linecap="round"></path><path d="M32.1 13.3 L47.9 38.7" fill="none" stroke="var(--pw-grain-stroke,#2A3540)" stroke-width="1.6" stroke-linecap="round" stroke-linejoin="round"></path><path d="M17.5 39 A7 6 0 0 1 30.5 39 Z" fill="var(--pw-grain-fill,#E8EBEE)" stroke="var(--pw-grain-stroke,#2A3540)" stroke-width="2.2" stroke-linejoin="round" stroke-linecap="round"></path><ellipse cx="24" cy="42" rx="6.5" ry="8.5" fill="var(--pw-grain-fill,#E8EBEE)" stroke="var(--pw-grain-stroke,#2A3540)" stroke-width="2.2"></ellipse><path d="M24 34 L24 31" fill="none" stroke="var(--pw-grain-stroke,#2A3540)" stroke-width="2.2" stroke-linecap="round" stroke-linejoin="round"></path>
</svg>