<svg viewBox="0 0 64 64" xmlns="http://www.w3.org/2000/svg">
  <path d="M32 56 L32 12" fill="none" stroke="var(--pw-grain-stroke,#2A3540)" stroke-width="2.2" stroke-linecap="round" stroke-linejoin="round"></path><path d="M32 18 L26 14" fill="none" stroke="var(--pw-grain-stroke,#2A3540)" stroke-width="1.3" stroke-linecap="round" stroke-linejoin="round"></path><path d="M32 18 L38 14" fill="none" stroke="var(--pw-grain-stroke,#2A3540)" stroke-width="1.3" stroke-linecap="round" stroke-linejoin="round"></path><circle cx="26" cy="14" r="1.5" fill="var(--pw-grain-stroke,#2A3540)"></circle><circle cx="38" cy="14" r="1.5" fill="var(--pw-grain-stroke,#2A3540)"></circle><path d="M32 24 L24.4 20" fill="none" stroke="var(--pw-grain-stroke,#2A3540)" stroke-width="1.3" stroke-linecap="round" stroke-linejoin="round"></path><path d="M32 24 L39.6 20" fill="none" stroke="var(--pw-grain-stroke,#2A3540)" stroke-width="1.3" stroke-linecap="round" stroke-linejoin="round"></path><circle cx="24.4" cy="20" r="1.5" fill="var(--pw-grain-stroke,#2A3540)"></circle><circle cx="39.6" cy="20" r="1.5" fill="var(--pw-grain-stroke,#2A3540)"></circle><path d="M32 30 L22.8 26" fill="none" stroke="var(--pw-grain-stroke,#2A3540)" stroke-width="1.3" stroke-linecap="round" stroke-linejoin="round"></path><path d="M32 30 L41.2 26" fill="none" stroke="var(--pw-grain-stroke,#2A3540)" stroke-width="1.3" stroke-linecap="round" stroke-linejoin="round"></path><circle cx="22.8" cy="26" r="1.5" fill="var(--pw-grain-stroke,#2A3540)"></circle><circle cx="41.2" cy="26" r="1.5" fill="var(--pw-grain-stroke,#2A3540)"></circle><path d="M32 36 L21.2 32" fill="none" stroke="var(--pw-grain-stroke,#2A3540)" stroke-width="1.3" stroke-linecap="round" stroke-linejoin="round"></path><path d="M32 36 L42.8 32" fill="none" stroke="var(--pw-grain-stroke,#2A3540)" stroke-width="1.3" stroke-linecap="round" stroke-linejoin="round"></path><circle cx="21.2" cy="32" r="1.5" fill="var(--pw-grain-stroke,#2A3540)"></circle><circle cx="42.8" cy="32" r="1.5" fill="var(--pw-grain-stroke,#2A3540)"></circle><path d="M32 42 L19.6 38" fill="none" stroke="var(--pw-grain-stroke,#2A3540)" stroke-width="1.3" stroke-linecap="round" stroke-linejoin="round"></path><path d="M32 42 L44.4 38" fill="none" stroke="var(--pw-grain-stroke,#2A3540)" stroke-width="1.3" stroke-linecap="round" stroke-linejoin="round"></path><circle cx="19.6" cy="38" r="1.5" fill="var(--pw-grain-stroke,#2A3540)"></circle><circle cx="44.4" cy="38" r="1.5" fill="var(--pw-grain-stroke,#2A3540)"></circle><path d="M32 48 L18 44" fill="none" stroke="var(--pw-grain-stroke,#2A3540)" stroke-width="1.3" stroke-linecap="round" stroke-linejoin="round"></path><path d="M32 48 L46 44" fill="none" stroke="var(--pw-grain-stroke,#2A3540)" stroke-width="1.3" stroke-linecap="round" stroke-linejoin="round"></path><circle cx="18" cy="44" r="1.5" fill="var(--pw-grain-stroke,#2A3540)"></circle><circle cx="46" cy="44" r="1.5" fill="var(--pw-grain-stroke,#2A3540)"></circle><circle cx="32" cy="13" r="1.8" fill="var(--pw-grain-stroke,#2A3540)"></circle>
</svg>