<svg viewBox="0 0 64 64" xmlns="http://www.w3.org/2000/svg">
  <path d="M32 54 L32 18" fill="none" stroke="var(--pw-grain-stroke,#2A3540)" stroke-width="2.2" stroke-linecap="round" stroke-linejoin="round"></path><path d="M28.4 44 Q18.8 45.1 15.6 36 Q25.2 34.9 28.4 44 Z" fill="var(--pw-grain-fill,#E8EBEE)" stroke="var(--pw-grain-stroke,#2A3540)" stroke-width="2.2" stroke-linejoin="round" stroke-linecap="round"></path><path d="M15.6 36 L28.4 44" fill="none" stroke="var(--pw-grain-stroke,#2A3540)" stroke-width="1.6" stroke-linecap="round" stroke-linejoin="round"></path><path d="M22 40 L21.7 42.7" fill="none" stroke="var(--pw-grain-stroke,#2A3540)" stroke-width="1.3" stroke-linecap="round" stroke-linejoin="round"></path><path d="M22 40 L24.3 38.6" fill="none" stroke="var(--pw-grain-stroke,#2A3540)" stroke-width="1.3" stroke-linecap="round" stroke-linejoin="round"></path><path d="M35.6 44 Q38.8 34.9 48.4 36 Q45.2 45.1 35.6 44 Z" fill="var(--pw-grain-fill,#E8EBEE)" stroke="var(--pw-grain-stroke,#2A3540)" stroke-width="2.2" stroke-linejoin="round" stroke-linecap="round"></path><path d="M48.4 36 L35.6 44" fill="none" stroke="var(--pw-grain-stroke,#2A3540)" stroke-width="1.6" stroke-linecap="round" stroke-linejoin="round"></path><path d="M42 40 L39.7 38.6" fill="none" stroke="var(--pw-grain-stroke,#2A3540)" stroke-width="1.3" stroke-linecap="round" stroke-linejoin="round"></path><path d="M42 40 L42.3 42.7" fill="none" stroke="var(--pw-grain-stroke,#2A3540)" stroke-width="1.3" stroke-linecap="round" stroke-linejoin="round"></path><path d="M28.2 32.2 Q20.5 31.5 19.8 23.8 Q27.5 24.5 28.2 32.2 Z" fill="var(--pw-grain-fill,#E8EBEE)" stroke="var(--pw-grain-stroke,#2A3540)" stroke-width="2.2" stroke-linejoin="round" stroke-linecap="round"></path><path d="M19.8 23.8 L28.2 32.2" fill="none" stroke="var(--pw-grain-stroke,#2A3540)" stroke-width="1.6" stroke-linecap="round" stroke-linejoin="round"></path><path d="M24 28 L23.3 30.1" fill="none" stroke="var(--pw-grain-stroke,#2A3540)" stroke-width="1.3" stroke-linecap="round" stroke-linejoin="round"></path><path d="M24 28 L26.1 27.3" fill="none" stroke="var(--pw-grain-stroke,#2A3540)" stroke-width="1.3" stroke-linecap="round" stroke-linejoin="round"></path><path d="M35.8 32.2 Q36.5 24.5 44.2 23.8 Q43.5 31.5 35.8 32.2 Z" fill="var(--pw-grain-fill,#E8EBEE)" stroke="var(--pw-grain-stroke,#2A3540)" stroke-width="2.2" stroke-linejoin="round" stroke-linecap="round"></path><path d="M44.2 23.8 L35.8 32.2" fill="none" stroke="var(--pw-grain-stroke,#2A3540)" stroke-width="1.6" stroke-linecap="round" stroke-linejoin="round"></path><path d="M40 28 L37.9 27.3" fill="none" stroke="var(--pw-grain-stroke,#2A3540)" stroke-width="1.3" stroke-linecap="round" stroke-linejoin="round"></path><path d="M40 28 L40.7 30.1" fill="none" stroke="var(--pw-grain-stroke,#2A3540)" stroke-width="1.3" stroke-linecap="round" stroke-linejoin="round"></path><circle cx="32" cy="18" r="2" fill="var(--pw-grain-stroke,#2A3540)"></circle>
</svg>