<svg viewBox="0 0 64 64" xmlns="http://www.w3.org/2000/svg">
  <path d="M32 56 L32 30" fill="none" stroke="var(--pw-grain-stroke,#2A3540)" stroke-width="2.2" stroke-linecap="round" stroke-linejoin="round"></path><path d="M28 13 L24 12" fill="none" stroke="var(--pw-grain-stroke,#2A3540)" stroke-width="1.3" stroke-linecap="round" stroke-linejoin="round"></path><path d="M36 13 L40 12" fill="none" stroke="var(--pw-grain-stroke,#2A3540)" stroke-width="1.3" stroke-linecap="round" stroke-linejoin="round"></path><path d="M28 15 L24 14" fill="none" stroke="var(--pw-grain-stroke,#2A3540)" stroke-width="1.3" stroke-linecap="round" stroke-linejoin="round"></path><path d="M36 15 L40 14" fill="none" stroke="var(--pw-grain-stroke,#2A3540)" stroke-width="1.3" stroke-linecap="round" stroke-linejoin="round"></path><path d="M28 17 L24 16" fill="none" stroke="var(--pw-grain-stroke,#2A3540)" stroke-width="1.3" stroke-linecap="round" stroke-linejoin="round"></path><path d="M36 17 L40 16" fill="none" stroke="var(--pw-grain-stroke,#2A3540)" stroke-width="1.3" stroke-linecap="round" stroke-linejoin="round"></path><path d="M28 19 L24 18" fill="none" stroke="var(--pw-grain-stroke,#2A3540)" stroke-width="1.3" stroke-linecap="round" stroke-linejoin="round"></path><path d="M36 19 L40 18" fill="none" stroke="var(--pw-grain-stroke,#2A3540)" stroke-width="1.3" stroke-linecap="round" stroke-linejoin="round"></path><path d="M28 21 L24 20" fill="none" stroke="var(--pw-grain-stroke,#2A3540)" stroke-width="1.3" stroke-linecap="round" stroke-linejoin="round"></path><path d="M36 21 L40 20" fill="none" stroke="var(--pw-grain-stroke,#2A3540)" stroke-width="1.3" stroke-linecap="round" stroke-linejoin="round"></path><path d="M28 23 L24 22" fill="none" stroke="var(--pw-grain-stroke,#2A3540)" stroke-width="1.3" stroke-linecap="round" stroke-linejoin="round"></path><path d="M36 23 L40 22" fill="none" stroke="var(--pw-grain-stroke,#2A3540)" stroke-width="1.3" stroke-linecap="round" stroke-linejoin="round"></path><path d="M28 25 L24 24" fill="none" stroke="var(--pw-grain-stroke,#2A3540)" stroke-width="1.3" stroke-linecap="round" stroke-linejoin="round"></path><path d="M36 25 L40 24" fill="none" stroke="var(--pw-grain-stroke,#2A3540)" stroke-width="1.3" stroke-linecap="round" stroke-linejoin="round"></path><g transform="rotate(90 32 20)"><rect x="23" y="16" width="18" height="8" rx="4" fill="var(--pw-grain-fill,#E8EBEE)" stroke="var(--pw-grain-stroke,#2A3540)" stroke-width="2.2"></rect></g>
</svg>