<svg viewBox="0 0 64 64" xmlns="http://www.w3.org/2000/svg">
  <path d="M16 50 L30 24" fill="none" stroke="var(--pw-grain-stroke,#2A3540)" stroke-width="2.2" stroke-linecap="round" stroke-linejoin="round"></path><path d="M16.6 46.1 Q11.2 46.5 8.8 41.6 Q14.2 41.3 16.6 46.1 Z" fill="var(--pw-grain-fill,#E8EBEE)" stroke="var(--pw-grain-stroke,#2A3540)" stroke-width="2.2" stroke-linejoin="round" stroke-linecap="round"></path><path d="M23 52.6 Q19 49.8 20.3 45.1 Q24.3 47.9 23 52.6 Z" fill="var(--pw-grain-fill,#E8EBEE)" stroke="var(--pw-grain-stroke,#2A3540)" stroke-width="2.2" stroke-linejoin="round" stroke-linecap="round"></path><path d="M19.7 40.4 Q14.3 40.8 11.9 35.9 Q17.3 35.6 19.7 40.4 Z" fill="var(--pw-grain-fill,#E8EBEE)" stroke="var(--pw-grain-stroke,#2A3540)" stroke-width="2.2" stroke-linejoin="round" stroke-linecap="round"></path><path d="M26.1 46.9 Q22.1 44.1 23.4 39.4 Q27.4 42.2 26.1 46.9 Z" fill="var(--pw-grain-fill,#E8EBEE)" stroke="var(--pw-grain-stroke,#2A3540)" stroke-width="2.2" stroke-linejoin="round" stroke-linecap="round"></path><path d="M22.7 34.7 Q17.3 35 14.9 30.2 Q20.3 29.8 22.7 34.7 Z" fill="var(--pw-grain-fill,#E8EBEE)" stroke="var(--pw-grain-stroke,#2A3540)" stroke-width="2.2" stroke-linejoin="round" stroke-linecap="round"></path><path d="M29.2 41.2 Q25.2 38.4 26.5 33.7 Q30.5 36.5 29.2 41.2 Z" fill="var(--pw-grain-fill,#E8EBEE)" stroke="var(--pw-grain-stroke,#2A3540)" stroke-width="2.2" stroke-linejoin="round" stroke-linecap="round"></path><path d="M25.8 29 Q20.4 29.3 18 24.5 Q23.4 24.1 25.8 29 Z" fill="var(--pw-grain-fill,#E8EBEE)" stroke="var(--pw-grain-stroke,#2A3540)" stroke-width="2.2" stroke-linejoin="round" stroke-linecap="round"></path><path d="M32.3 35.5 Q28.3 32.7 29.6 28 Q33.6 30.8 32.3 35.5 Z" fill="var(--pw-grain-fill,#E8EBEE)" stroke="var(--pw-grain-stroke,#2A3540)" stroke-width="2.2" stroke-linejoin="round" stroke-linecap="round"></path><path d="M40 44 L44 20" fill="none" stroke="var(--pw-grain-stroke,#2A3540)" stroke-width="1.6" stroke-linecap="round" stroke-linejoin="round"></path><circle cx="40" cy="44" r="2" fill="var(--pw-grain-stroke,#2A3540)"></circle><circle cx="41" cy="38" r="2" fill="var(--pw-grain-stroke,#2A3540)"></circle><circle cx="42" cy="32" r="2" fill="var(--pw-grain-stroke,#2A3540)"></circle><circle cx="43" cy="26" r="2" fill="var(--pw-grain-stroke,#2A3540)"></circle><circle cx="44" cy="20" r="2" fill="var(--pw-grain-stroke,#2A3540)"></circle>
</svg>