<svg viewBox="0 0 64 64" xmlns="http://www.w3.org/2000/svg">
  <path d="M32 56 L32 10" fill="none" stroke="var(--pw-grain-stroke,#2A3540)" stroke-width="2.2" stroke-linecap="round" stroke-linejoin="round"></path><circle cx="29" cy="14" r="1.7" fill="var(--pw-grain-stroke,#2A3540)"></circle><circle cx="35" cy="14" r="1.7" fill="var(--pw-grain-stroke,#2A3540)"></circle><circle cx="32" cy="12" r="1.6" fill="var(--pw-grain-stroke,#2A3540)"></circle><circle cx="28.4" cy="19" r="1.7" fill="var(--pw-grain-stroke,#2A3540)"></circle><circle cx="35.6" cy="19" r="1.7" fill="var(--pw-grain-stroke,#2A3540)"></circle><circle cx="32" cy="17" r="1.6" fill="var(--pw-grain-stroke,#2A3540)"></circle><circle cx="27.8" cy="24" r="1.7" fill="var(--pw-grain-stroke,#2A3540)"></circle><circle cx="36.2" cy="24" r="1.7" fill="var(--pw-grain-stroke,#2A3540)"></circle><circle cx="32" cy="22" r="1.6" fill="var(--pw-grain-stroke,#2A3540)"></circle><circle cx="27.2" cy="29" r="1.7" fill="var(--pw-grain-stroke,#2A3540)"></circle><circle cx="36.8" cy="29" r="1.7" fill="var(--pw-grain-stroke,#2A3540)"></circle><circle cx="32" cy="27" r="1.6" fill="var(--pw-grain-stroke,#2A3540)"></circle><circle cx="26.6" cy="34" r="1.7" fill="var(--pw-grain-stroke,#2A3540)"></circle><circle cx="37.4" cy="34" r="1.7" fill="var(--pw-grain-stroke,#2A3540)"></circle><circle cx="32" cy="32" r="1.6" fill="var(--pw-grain-stroke,#2A3540)"></circle><circle cx="27.5" cy="39" r="1.7" fill="var(--pw-grain-stroke,#2A3540)"></circle><circle cx="36.5" cy="39" r="1.7" fill="var(--pw-grain-stroke,#2A3540)"></circle><circle cx="32" cy="37" r="1.6" fill="var(--pw-grain-stroke,#2A3540)"></circle><circle cx="29" cy="44" r="1.7" fill="var(--pw-grain-stroke,#2A3540)"></circle><circle cx="35" cy="44" r="1.7" fill="var(--pw-grain-stroke,#2A3540)"></circle><circle cx="32" cy="42" r="1.6" fill="var(--pw-grain-stroke,#2A3540)"></circle>
</svg>