<svg viewBox="0 0 64 64" xmlns="http://www.w3.org/2000/svg">
  <path d="M32 56 L32 30" fill="none" stroke="var(--pw-grain-stroke,#2A3540)" stroke-width="2.2" stroke-linecap="round" stroke-linejoin="round"></path><ellipse cx="28" cy="30" rx="3.2" ry="3" fill="var(--pw-grain-fill,#E8EBEE)" stroke="var(--pw-grain-stroke,#2A3540)" stroke-width="1.6"></ellipse><ellipse cx="36" cy="30" rx="3.2" ry="3" fill="var(--pw-grain-fill,#E8EBEE)" stroke="var(--pw-grain-stroke,#2A3540)" stroke-width="1.6"></ellipse><ellipse cx="28" cy="26" rx="3.2" ry="3" fill="var(--pw-grain-fill,#E8EBEE)" stroke="var(--pw-grain-stroke,#2A3540)" stroke-width="1.6"></ellipse><ellipse cx="36" cy="26" rx="3.2" ry="3" fill="var(--pw-grain-fill,#E8EBEE)" stroke="var(--pw-grain-stroke,#2A3540)" stroke-width="1.6"></ellipse><ellipse cx="28" cy="22" rx="3.2" ry="3" fill="var(--pw-grain-fill,#E8EBEE)" stroke="var(--pw-grain-stroke,#2A3540)" stroke-width="1.6"></ellipse><ellipse cx="36" cy="22" rx="3.2" ry="3" fill="var(--pw-grain-fill,#E8EBEE)" stroke="var(--pw-grain-stroke,#2A3540)" stroke-width="1.6"></ellipse><ellipse cx="28" cy="18" rx="3.2" ry="3" fill="var(--pw-grain-fill,#E8EBEE)" stroke="var(--pw-grain-stroke,#2A3540)" stroke-width="1.6"></ellipse><ellipse cx="36" cy="18" rx="3.2" ry="3" fill="var(--pw-grain-fill,#E8EBEE)" stroke="var(--pw-grain-stroke,#2A3540)" stroke-width="1.6"></ellipse><ellipse cx="28" cy="14" rx="3.2" ry="3" fill="var(--pw-grain-fill,#E8EBEE)" stroke="var(--pw-grain-stroke,#2A3540)" stroke-width="1.6"></ellipse><ellipse cx="36" cy="14" rx="3.2" ry="3" fill="var(--pw-grain-fill,#E8EBEE)" stroke="var(--pw-grain-stroke,#2A3540)" stroke-width="1.6"></ellipse><path d="M28 12 L23 2" fill="none" stroke="var(--pw-grain-stroke,#2A3540)" stroke-width="1.3" stroke-linecap="round" stroke-linejoin="round"></path><path d="M30 12 L27.5 2" fill="none" stroke="var(--pw-grain-stroke,#2A3540)" stroke-width="1.3" stroke-linecap="round" stroke-linejoin="round"></path><path d="M32 12 L32 2" fill="none" stroke="var(--pw-grain-stroke,#2A3540)" stroke-width="1.3" stroke-linecap="round" stroke-linejoin="round"></path><path d="M34 12 L36.5 2" fill="none" stroke="var(--pw-grain-stroke,#2A3540)" stroke-width="1.3" stroke-linecap="round" stroke-linejoin="round"></path><path d="M36 12 L41 2" fill="none" stroke="var(--pw-grain-stroke,#2A3540)" stroke-width="1.3" stroke-linecap="round" stroke-linejoin="round"></path>
</svg>