<svg viewBox="0 0 120 92" xmlns="http://www.w3.org/2000/svg"><path d="M16.96 50.85 A44 44 0 0 1 39.34 21.15" stroke="#3DAE5A" stroke-width="11" fill="none" stroke-linecap="round" opacity="1"></path><path d="M42.1 19.8 A44 44 0 0 1 77.9 19.8" stroke="#F2A516" stroke-width="11" fill="none" stroke-linecap="round" opacity="1"></path><path d="M80.66 21.15 A44 44 0 0 1 103.04 50.85" stroke="#E0492E" stroke-width="14" fill="none" stroke-linecap="round" opacity="1"></path><g opacity="0.6"><g><ellipse cx="60" cy="47" rx="6" ry="8.8" transform="rotate(0 60 47)" fill="#F2B705"></ellipse><ellipse cx="71.26" cy="53.5" rx="6" ry="8.8" transform="rotate(60 71.26 53.5)" fill="#EC7A1C"></ellipse><ellipse cx="71.26" cy="66.5" rx="6" ry="8.8" transform="rotate(120 71.26 66.5)" fill="#E0492E"></ellipse><ellipse cx="60" cy="73" rx="6" ry="8.8" transform="rotate(180 60 73)" fill="#D94F87"></ellipse><ellipse cx="48.74" cy="66.5" rx="6" ry="8.8" transform="rotate(240 48.74 66.5)" fill="#7FB23E"></ellipse><ellipse cx="48.74" cy="53.5" rx="6" ry="8.8" transform="rotate(300 48.74 53.5)" fill="#F2B705"></ellipse></g><circle cx="60" cy="60" r="5.5" fill="#E0492E"></circle></g><g fill="#E8920C" opacity="1"><path d="M86.2 61.32 L87 58.6 L87.8 61.32 ZM88.11 61.43 L90.47 59.86 L89.34 62.46 ZM89.5 62.74 L92.32 63.06 L89.78 64.33 ZM89.72 64.65 L91.68 66.7 L88.92 66.04 ZM88.67 66.25 L88.85 69.07 L87.16 66.8 ZM86.84 66.8 L85.15 69.07 L85.33 66.25 ZM85.08 66.04 L82.32 66.7 L84.28 64.65 ZM84.22 64.33 L81.68 63.06 L84.5 62.74 ZM84.66 62.46 L83.53 59.86 L85.89 61.43 Z"></path><circle cx="87" cy="64" r="3.2"></circle></g><g fill="#E8920C" opacity="1"><path d="M77.26 79.82 L78 77.4 L78.74 79.82 ZM79.02 79.94 L81.25 78.75 L80.06 80.98 ZM80.18 81.26 L82.6 82 L80.18 82.74 ZM80.06 83.02 L81.25 85.25 L79.02 84.06 ZM78.74 84.18 L78 86.6 L77.26 84.18 ZM76.98 84.06 L74.75 85.25 L75.94 83.02 ZM75.82 82.74 L73.4 82 L75.82 81.26 ZM75.94 80.98 L74.75 78.75 L76.98 79.94 Z"></path><circle cx="78" cy="82" r="2.7"></circle></g><g fill="#E8920C" opacity="1"><path d="M59.23 87.73 L60 85.2 L60.77 87.73 ZM61.06 87.85 L63.39 86.61 L62.15 88.94 ZM62.27 89.23 L64.8 90 L62.27 90.77 ZM62.15 91.06 L63.39 93.39 L61.06 92.15 ZM60.77 92.27 L60 94.8 L59.23 92.27 ZM58.94 92.15 L56.61 93.39 L57.85 91.06 ZM57.73 90.77 L55.2 90 L57.73 89.23 ZM57.85 88.94 L56.61 86.61 L58.94 87.85 Z"></path><circle cx="60" cy="90" r="2.8"></circle></g><g fill="#E8920C" opacity="1"><path d="M41.26 79.82 L42 77.4 L42.74 79.82 ZM43.02 79.94 L45.25 78.75 L44.06 80.98 ZM44.18 81.26 L46.6 82 L44.18 82.74 ZM44.06 83.02 L45.25 85.25 L43.02 84.06 ZM42.74 84.18 L42 86.6 L41.26 84.18 ZM40.98 84.06 L38.75 85.25 L39.94 83.02 ZM39.82 82.74 L37.4 82 L39.82 81.26 ZM39.94 80.98 L38.75 78.75 L40.98 79.94 Z"></path><circle cx="42" cy="82" r="2.7"></circle></g><g fill="#E8920C" opacity="1"><path d="M32.2 61.32 L33 58.6 L33.8 61.32 ZM34.11 61.43 L36.47 59.86 L35.34 62.46 ZM35.5 62.74 L38.32 63.06 L35.78 64.33 ZM35.72 64.65 L37.68 66.7 L34.92 66.04 ZM34.67 66.25 L34.85 69.07 L33.16 66.8 ZM32.84 66.8 L31.15 69.07 L31.33 66.25 ZM31.08 66.04 L28.32 66.7 L30.28 64.65 ZM30.22 64.33 L27.68 63.06 L30.5 62.74 ZM30.66 62.46 L29.53 59.86 L31.89 61.43 Z"></path><circle cx="33" cy="64" r="3.2"></circle></g><path d="M60 60 L89.16 37.22" stroke="#33414F" stroke-width="3.6" stroke-linecap="round"></path><circle cx="60" cy="60" r="4.5" fill="#E0492E"></circle></svg>