<svg viewBox="0 0 120 92" xmlns="http://www.w3.org/2000/svg"><path d="M16.96 50.85 A44 44 0 0 1 39.34 21.15" stroke="#3DAE5A" stroke-width="14" fill="none" stroke-linecap="round" opacity="1"></path><path d="M42.1 19.8 A44 44 0 0 1 77.9 19.8" stroke="#F2A516" stroke-width="11" fill="none" stroke-linecap="round" opacity="1"></path><path d="M80.66 21.15 A44 44 0 0 1 103.04 50.85" stroke="#E0492E" stroke-width="11" fill="none" stroke-linecap="round" opacity="1"></path><g opacity="0.6"><g><ellipse cx="60" cy="47" rx="6" ry="8.8" transform="rotate(0 60 47)" fill="#F2B705"></ellipse><ellipse cx="71.26" cy="53.5" rx="6" ry="8.8" transform="rotate(60 71.26 53.5)" fill="#EC7A1C"></ellipse><ellipse cx="71.26" cy="66.5" rx="6" ry="8.8" transform="rotate(120 71.26 66.5)" fill="#E0492E"></ellipse><ellipse cx="60" cy="73" rx="6" ry="8.8" transform="rotate(180 60 73)" fill="#D94F87"></ellipse><ellipse cx="48.74" cy="66.5" rx="6" ry="8.8" transform="rotate(240 48.74 66.5)" fill="#7FB23E"></ellipse><ellipse cx="48.74" cy="53.5" rx="6" ry="8.8" transform="rotate(300 48.74 53.5)" fill="#F2B705"></ellipse></g><circle cx="60" cy="60" r="5.5" fill="#3DAE5A"></circle></g><path d="M60 60 L30.84 37.22" stroke="#33414F" stroke-width="3.6" stroke-linecap="round"></path><circle cx="60" cy="60" r="4.5" fill="#3DAE5A"></circle></svg>