<svg viewBox="0 0 64 64" xmlns="http://www.w3.org/2000/svg">
  <ellipse cx="46" cy="32" rx="4" ry="8" fill="var(--pw-grain-fill,#E8EBEE)" stroke="var(--pw-grain-stroke,#2A3540)" stroke-width="2.2" transform="rotate(90 46 32)"></ellipse><ellipse cx="43.8" cy="39.6" rx="4" ry="8" fill="var(--pw-grain-fill,#E8EBEE)" stroke="var(--pw-grain-stroke,#2A3540)" stroke-width="2.2" transform="rotate(122.72727272727272 43.8 39.6)"></ellipse><ellipse cx="37.8" cy="44.7" rx="4" ry="8" fill="var(--pw-grain-fill,#E8EBEE)" stroke="var(--pw-grain-stroke,#2A3540)" stroke-width="2.2" transform="rotate(155.45454545454544 37.8 44.7)"></ellipse><ellipse cx="30" cy="45.9" rx="4" ry="8" fill="var(--pw-grain-fill,#E8EBEE)" stroke="var(--pw-grain-stroke,#2A3540)" stroke-width="2.2" transform="rotate(188.1818181818182 30 45.9)"></ellipse><ellipse cx="22.8" cy="42.6" rx="4" ry="8" fill="var(--pw-grain-fill,#E8EBEE)" stroke="var(--pw-grain-stroke,#2A3540)" stroke-width="2.2" transform="rotate(220.9090909090909 22.8 42.6)"></ellipse><ellipse cx="18.6" cy="35.9" rx="4" ry="8" fill="var(--pw-grain-fill,#E8EBEE)" stroke="var(--pw-grain-stroke,#2A3540)" stroke-width="2.2" transform="rotate(253.63636363636363 18.6 35.9)"></ellipse><ellipse cx="18.6" cy="28.1" rx="4" ry="8" fill="var(--pw-grain-fill,#E8EBEE)" stroke="var(--pw-grain-stroke,#2A3540)" stroke-width="2.2" transform="rotate(286.3636363636364 18.6 28.1)"></ellipse><ellipse cx="22.8" cy="21.4" rx="4" ry="8" fill="var(--pw-grain-fill,#E8EBEE)" stroke="var(--pw-grain-stroke,#2A3540)" stroke-width="2.2" transform="rotate(319.0909090909091 22.8 21.4)"></ellipse><ellipse cx="30" cy="18.1" rx="4" ry="8" fill="var(--pw-grain-fill,#E8EBEE)" stroke="var(--pw-grain-stroke,#2A3540)" stroke-width="2.2" transform="rotate(351.8181818181818 30 18.1)"></ellipse><ellipse cx="37.8" cy="19.3" rx="4" ry="8" fill="var(--pw-grain-fill,#E8EBEE)" stroke="var(--pw-grain-stroke,#2A3540)" stroke-width="2.2" transform="rotate(384.54545454545456 37.8 19.3)"></ellipse><ellipse cx="43.8" cy="24.4" rx="4" ry="8" fill="var(--pw-grain-fill,#E8EBEE)" stroke="var(--pw-grain-stroke,#2A3540)" stroke-width="2.2" transform="rotate(417.27272727272725 43.8 24.4)"></ellipse><circle cx="32" cy="32" r="7" fill="var(--pw-grain-fill,#E8EBEE)" stroke="var(--pw-grain-stroke,#2A3540)" stroke-width="2.2"></circle>
</svg>