<svg viewBox="0 0 64 64" xmlns="http://www.w3.org/2000/svg">
  <path d="M20 10 L26 21" fill="none" stroke="var(--pw-grain-stroke,#2A3540)" stroke-width="2.2" stroke-linecap="round" stroke-linejoin="round"></path><g transform="rotate(64 24.5 26)"><rect x="13.5" y="23" width="22" height="6" rx="3" fill="var(--pw-grain-fill,#E8EBEE)" stroke="var(--pw-grain-stroke,#2A3540)" stroke-width="2.2"></rect><line x1="16.5" y1="24.6" x2="16.5" y2="27.4" stroke="var(--pw-grain-stroke,#2A3540)" stroke-width="1.3"></line><line x1="19.7" y1="24.6" x2="19.7" y2="27.4" stroke="var(--pw-grain-stroke,#2A3540)" stroke-width="1.3"></line><line x1="22.9" y1="24.6" x2="22.9" y2="27.4" stroke="var(--pw-grain-stroke,#2A3540)" stroke-width="1.3"></line><line x1="26.1" y1="24.6" x2="26.1" y2="27.4" stroke="var(--pw-grain-stroke,#2A3540)" stroke-width="1.3"></line><line x1="29.3" y1="24.6" x2="29.3" y2="27.4" stroke="var(--pw-grain-stroke,#2A3540)" stroke-width="1.3"></line><line x1="32.5" y1="24.6" x2="32.5" y2="27.4" stroke="var(--pw-grain-stroke,#2A3540)" stroke-width="1.3"></line></g><path d="M51.2 47 Q36.1 45.3 30.8 31 Q45.9 32.7 51.2 47 Z" fill="var(--pw-grain-fill,#E8EBEE)" stroke="var(--pw-grain-stroke,#2A3540)" stroke-width="2.2" stroke-linejoin="round" stroke-linecap="round"></path><path d="M30.8 31 L51.2 47" fill="none" stroke="var(--pw-grain-stroke,#2A3540)" stroke-width="1.6" stroke-linecap="round" stroke-linejoin="round"></path><path d="M37.6 36.3 L36.6 41" fill="none" stroke="var(--pw-grain-stroke,#2A3540)" stroke-width="1.3" stroke-linecap="round" stroke-linejoin="round"></path><path d="M37.6 36.3 L41.9 34.3" fill="none" stroke="var(--pw-grain-stroke,#2A3540)" stroke-width="1.3" stroke-linecap="round" stroke-linejoin="round"></path><path d="M44.4 41.7 L43.9 44" fill="none" stroke="var(--pw-grain-stroke,#2A3540)" stroke-width="1.3" stroke-linecap="round" stroke-linejoin="round"></path><path d="M44.4 41.7 L46.6 40.6" fill="none" stroke="var(--pw-grain-stroke,#2A3540)" stroke-width="1.3" stroke-linecap="round" stroke-linejoin="round"></path>
</svg>