<svg viewBox="0 0 64 64" xmlns="http://www.w3.org/2000/svg">
  <path d="M32 56 L32 26" fill="none" stroke="var(--pw-grain-stroke,#2A3540)" stroke-width="2.2" stroke-linecap="round" stroke-linejoin="round"></path><path d="M32 18 L32 14" fill="none" stroke="var(--pw-grain-stroke,#2A3540)" stroke-width="1.3" stroke-linecap="round" stroke-linejoin="round"></path><ellipse cx="32" cy="14" rx="2.4" ry="4.6" fill="var(--pw-grain-fill,#E8EBEE)" stroke="var(--pw-grain-stroke,#2A3540)" stroke-width="1.6"></ellipse><path d="M32 23 L25 19" fill="none" stroke="var(--pw-grain-stroke,#2A3540)" stroke-width="1.3" stroke-linecap="round" stroke-linejoin="round"></path><ellipse cx="25" cy="19" rx="2.4" ry="4.6" fill="var(--pw-grain-fill,#E8EBEE)" stroke="var(--pw-grain-stroke,#2A3540)" stroke-width="1.6" transform="rotate(-14 25 19)"></ellipse><path d="M32 23 L39 19" fill="none" stroke="var(--pw-grain-stroke,#2A3540)" stroke-width="1.3" stroke-linecap="round" stroke-linejoin="round"></path><ellipse cx="39" cy="19" rx="2.4" ry="4.6" fill="var(--pw-grain-fill,#E8EBEE)" stroke="var(--pw-grain-stroke,#2A3540)" stroke-width="1.6" transform="rotate(14 39 19)"></ellipse><path d="M32 31 L22 27" fill="none" stroke="var(--pw-grain-stroke,#2A3540)" stroke-width="1.3" stroke-linecap="round" stroke-linejoin="round"></path><ellipse cx="22" cy="27" rx="2.4" ry="4.6" fill="var(--pw-grain-fill,#E8EBEE)" stroke="var(--pw-grain-stroke,#2A3540)" stroke-width="1.6" transform="rotate(-20 22 27)"></ellipse><path d="M32 31 L42 27" fill="none" stroke="var(--pw-grain-stroke,#2A3540)" stroke-width="1.3" stroke-linecap="round" stroke-linejoin="round"></path><ellipse cx="42" cy="27" rx="2.4" ry="4.6" fill="var(--pw-grain-fill,#E8EBEE)" stroke="var(--pw-grain-stroke,#2A3540)" stroke-width="1.6" transform="rotate(20 42 27)"></ellipse><path d="M32 28 L28 24" fill="none" stroke="var(--pw-grain-stroke,#2A3540)" stroke-width="1.3" stroke-linecap="round" stroke-linejoin="round"></path><ellipse cx="28" cy="24" rx="2.4" ry="4.6" fill="var(--pw-grain-fill,#E8EBEE)" stroke="var(--pw-grain-stroke,#2A3540)" stroke-width="1.6" transform="rotate(-8 28 24)"></ellipse><path d="M32 28 L36 24" fill="none" stroke="var(--pw-grain-stroke,#2A3540)" stroke-width="1.3" stroke-linecap="round" stroke-linejoin="round"></path><ellipse cx="36" cy="24" rx="2.4" ry="4.6" fill="var(--pw-grain-fill,#E8EBEE)" stroke="var(--pw-grain-stroke,#2A3540)" stroke-width="1.6" transform="rotate(8 36 24)"></ellipse>
</svg>