<svg viewBox="0 0 64 64" xmlns="http://www.w3.org/2000/svg">
  <path d="M9.6 14.7C9.4 15.4 11.1 15.8 10.9 17.2C10.7 18.5 8.2 21.8 8.5 22.8C8.8 23.7 12.3 22 12.8 22.8C13.3 23.6 10.7 26.9 11.3 27.6C11.9 28.3 15.6 26.4 16.3 27C17 27.6 14.7 30.7 15.6 31.2C16.5 31.7 20.2 29.8 21.5 29.8C22.9 29.9 23 31.6 23.8 31.5C24.6 31.4 26.2 30.1 26.4 29.3C26.6 28.6 24.9 28.2 25.1 26.8C25.3 25.5 27.8 22.2 27.5 21.2C27.2 20.3 23.7 22 23.2 21.2C22.7 20.4 25.3 17.1 24.7 16.4C24.1 15.7 20.4 17.6 19.7 17C19 16.4 21.3 13.3 20.4 12.8C19.5 12.3 15.8 14.2 14.5 14.2C13.1 14.1 13 12.4 12.2 12.5C11.4 12.6 9.8 13.9 9.6 14.7Z" fill="var(--pw-grain-fill,#E8EBEE)" stroke="var(--pw-grain-stroke,#2A3540)" stroke-width="2.2" stroke-linejoin="round" stroke-linecap="round"></path><path d="M10.9 13.6 L25.1 30.4" fill="none" stroke="var(--pw-grain-stroke,#2A3540)" stroke-width="1.6" stroke-linecap="round" stroke-linejoin="round"></path><path d="M29.5 36 A9 7.5 0 0 1 46.5 36 Z" fill="var(--pw-grain-fill,#E8EBEE)" stroke="var(--pw-grain-stroke,#2A3540)" stroke-width="2.2" stroke-linejoin="round" stroke-linecap="round"></path><path d="M33 33.5 L33 37.5" fill="none" stroke="var(--pw-grain-stroke,#2A3540)" stroke-width="1.3" stroke-linecap="round" stroke-linejoin="round"></path><path d="M38 31.8 L38 37" fill="none" stroke="var(--pw-grain-stroke,#2A3540)" stroke-width="1.3" stroke-linecap="round" stroke-linejoin="round"></path><path d="M43 33.5 L43 37.5" fill="none" stroke="var(--pw-grain-stroke,#2A3540)" stroke-width="1.3" stroke-linecap="round" stroke-linejoin="round"></path><ellipse cx="38" cy="40" rx="8" ry="10.5" fill="var(--pw-grain-fill,#E8EBEE)" stroke="var(--pw-grain-stroke,#2A3540)" stroke-width="2.2"></ellipse><path d="M38 30 L38 26" fill="none" stroke="var(--pw-grain-stroke,#2A3540)" stroke-width="2.2" stroke-linecap="round" stroke-linejoin="round"></path>
</svg>