<svg viewBox="0 0 64 64" xmlns="http://www.w3.org/2000/svg">
  <path d="M32 8 L32 19" fill="none" stroke="var(--pw-grain-stroke,#2A3540)" stroke-width="2.2" stroke-linecap="round" stroke-linejoin="round"></path><path d="M30.6 23.1L32 18.5L33.4 23.1A13 13 0 0 1 35.7 23.5L38.7 19.8L38.2 24.6A13 13 0 0 1 40.1 25.9L44.4 23.6L42.1 27.9A13 13 0 0 1 43.4 29.8L48.2 29.3L44.5 32.3A13 13 0 0 1 44.9 34.6L49.5 36L44.9 37.4A13 13 0 0 1 44.5 39.7L48.2 42.7L43.4 42.2A13 13 0 0 1 42.1 44.1L44.4 48.4L40.1 46.1A13 13 0 0 1 38.2 47.4L38.7 52.2L35.7 48.5A13 13 0 0 1 33.4 48.9L32 53.5L30.6 48.9A13 13 0 0 1 28.3 48.5L25.3 52.2L25.8 47.4A13 13 0 0 1 23.9 46.1L19.6 48.4L21.9 44.1A13 13 0 0 1 20.6 42.2L15.8 42.7L19.5 39.7A13 13 0 0 1 19.1 37.4L14.5 36L19.1 34.6A13 13 0 0 1 19.5 32.3L15.8 29.3L20.6 29.8A13 13 0 0 1 21.9 27.9L19.6 23.6L23.9 25.9A13 13 0 0 1 25.8 24.6L25.3 19.8L28.3 23.5A13 13 0 0 1 30.6 23.1Z" fill="var(--pw-grain-fill,#E8EBEE)" stroke="var(--pw-grain-stroke,#2A3540)" stroke-width="2.2" stroke-linejoin="round" stroke-linecap="round"></path><circle cx="32" cy="36" r="5" fill="none" stroke="var(--pw-grain-stroke,#2A3540)" stroke-width="1.3"></circle>
</svg>