<svg viewBox="0 0 100 100" xmlns="http://www.w3.org/2000/svg"><path d="M24.32 41.66 A27 27 0 0 1 37.95 25.84" stroke="#3DAE5A" stroke-width="8" fill="none" stroke-linecap="round"></path><path d="M40.1 24.88 A27 27 0 0 1 59.9 24.88" stroke="#F2A516" stroke-width="8" fill="none" stroke-linecap="round"></path><path d="M62.05 25.84 A27 27 0 0 1 75.68 41.66" stroke="#E0492E" stroke-width="8" fill="none" stroke-linecap="round"></path><g opacity="0.6"><g><ellipse cx="50" cy="36" rx="6.44" ry="9.52" transform="rotate(0 50 36)" fill="#F2B705"></ellipse><ellipse cx="62.12" cy="43" rx="6.44" ry="9.52" transform="rotate(60 62.12 43)" fill="#EC7A1C"></ellipse><ellipse cx="62.12" cy="57" rx="6.44" ry="9.52" transform="rotate(120 62.12 57)" fill="#E0492E"></ellipse><ellipse cx="50" cy="64" rx="6.44" ry="9.52" transform="rotate(180 50 64)" fill="#D94F87"></ellipse><ellipse cx="37.88" cy="57" rx="6.44" ry="9.52" transform="rotate(240 37.88 57)" fill="#7FB23E"></ellipse><ellipse cx="37.88" cy="43" rx="6.44" ry="9.52" transform="rotate(300 37.88 43)" fill="#F2B705"></ellipse></g><circle cx="50" cy="50" r="5.6" fill="#F6D45E"></circle></g><g fill="#E8920C"><path d="M76.34 51.8 L77 49.4 L77.66 51.8 Z"></path><path d="M77.91 51.89 L79.96 50.48 L78.92 52.74 Z"></path><path d="M79.06 52.97 L81.53 53.2 L79.28 54.27 Z"></path><path d="M79.24 54.53 L80.98 56.3 L78.58 55.67 Z"></path><path d="M78.37 55.84 L78.57 58.32 L77.13 56.3 Z"></path><path d="M76.87 56.3 L75.43 58.32 L75.63 55.84 Z"></path><path d="M75.42 55.67 L73.02 56.3 L74.76 54.53 Z"></path><path d="M74.72 54.27 L72.47 53.2 L74.94 52.97 Z"></path><path d="M75.08 52.74 L74.04 50.48 L76.09 51.89 Z"></path><circle cx="77" cy="54" r="2.7"></circle></g><g fill="#E8920C"><path d="M68.36 69.11 L69 66.9 L69.64 69.11 Z"></path><path d="M69.88 69.21 L71.9 68.1 L70.79 70.12 Z"></path><path d="M70.89 70.36 L73.1 71 L70.89 71.64 Z"></path><path d="M70.79 71.88 L71.9 73.9 L69.88 72.79 Z"></path><path d="M69.64 72.89 L69 75.1 L68.36 72.89 Z"></path><path d="M68.12 72.79 L66.1 73.9 L67.21 71.88 Z"></path><path d="M67.11 71.64 L64.9 71 L67.11 70.36 Z"></path><path d="M67.21 70.12 L66.1 68.1 L68.12 69.21 Z"></path><circle cx="69" cy="71" r="2.4"></circle></g><g fill="#E8920C"><path d="M49.32 78.01 L50 75.7 L50.68 78.01 Z"></path><path d="M50.93 78.12 L53.04 76.96 L51.88 79.07 Z"></path><path d="M51.99 79.32 L54.3 80 L51.99 80.68 Z"></path><path d="M51.88 80.93 L53.04 83.04 L50.93 81.88 Z"></path><path d="M50.68 81.99 L50 84.3 L49.32 81.99 Z"></path><path d="M49.07 81.88 L46.96 83.04 L48.12 80.93 Z"></path><path d="M48.01 80.68 L45.7 80 L48.01 79.32 Z"></path><path d="M48.12 79.07 L46.96 76.96 L49.07 78.12 Z"></path><circle cx="50" cy="80" r="2.5"></circle></g><g fill="#E8920C"><path d="M30.36 69.11 L31 66.9 L31.64 69.11 Z"></path><path d="M31.88 69.21 L33.9 68.1 L32.79 70.12 Z"></path><path d="M32.89 70.36 L35.1 71 L32.89 71.64 Z"></path><path d="M32.79 71.88 L33.9 73.9 L31.88 72.79 Z"></path><path d="M31.64 72.89 L31 75.1 L30.36 72.89 Z"></path><path d="M30.12 72.79 L28.1 73.9 L29.21 71.88 Z"></path><path d="M29.11 71.64 L26.9 71 L29.11 70.36 Z"></path><path d="M29.21 70.12 L28.1 68.1 L30.12 69.21 Z"></path><circle cx="31" cy="71" r="2.4"></circle></g><g fill="#E8920C"><path d="M22.34 51.8 L23 49.4 L23.66 51.8 Z"></path><path d="M23.91 51.89 L25.96 50.48 L24.92 52.74 Z"></path><path d="M25.06 52.97 L27.53 53.2 L25.28 54.27 Z"></path><path d="M25.24 54.53 L26.98 56.3 L24.58 55.67 Z"></path><path d="M24.37 55.84 L24.57 58.32 L23.13 56.3 Z"></path><path d="M22.87 56.3 L21.43 58.32 L21.63 55.84 Z"></path><path d="M21.42 55.67 L19.02 56.3 L20.76 54.53 Z"></path><path d="M20.72 54.27 L18.47 53.2 L20.94 52.97 Z"></path><path d="M21.08 52.74 L20.04 50.48 L22.09 51.89 Z"></path><circle cx="23" cy="54" r="2.7"></circle></g><path d="M50 50 L67.84 33.94" stroke="#33414F" stroke-width="4.5" stroke-linecap="round"></path><circle cx="50" cy="50" r="3" fill="#33414F"></circle></svg>